<?xml version="1.0" encoding="UTF-8" standalone="no"?>
<!DOCTYPE svg PUBLIC "-//W3C//DTD SVG 1.1//EN" "http://www.w3.org/Graphics/SVG/1.1/DTD/svg11.dtd">
<svg version="1.1" xmlns:xl="http://www.w3.org/1999/xlink" xmlns:dc="http://purl.org/dc/elements/1.1/" xmlns="http://www.w3.org/2000/svg" viewBox="412.05623 276 325.50667 294.23604" width="325.50667" height="294.23604">
  <defs/>
  <g id="Canvas_1" stroke="none" fill="none" fill-opacity="1" stroke-dasharray="none" stroke-opacity="1">
    <title>Canvas 1</title>
    <g id="Canvas_1_Layer_1">
      <title>Layer 1</title>
      <g id="Group_2">
        <g id="Group_61">
          <g id="Graphic_62">
            <path d="M 604.451 297.4078 C 604.451 297.13334 604.72544 296.8589 604.9999 296.58443 C 606.0034 295.52062 607.2189 294.67913 608.56784 294.1143 C 608.8423 294.1143 609.11676 293.83985 609.3912 293.83985 C 610.48905 293.83985 611.03796 294.38877 610.7635 295.4866 C 610.48834 296.38077 610.48834 297.337 610.7635 298.23118 C 610.8813 298.48494 610.8891 298.77604 610.7852 299.0358 C 610.6813 299.29554 610.4749 299.50092 610.2146 299.60346 C 609.7853 299.80216 609.315 299.89622 608.8423 299.87792 C 607.9142 299.38276 606.8254 299.28377 605.8233 299.60346 C 605.5695 299.72123 605.2784 299.7291 605.01865 299.6252 C 604.7589 299.5213 604.5535 299.31483 604.451 299.05455 C 604.1728 298.54087 604.1728 297.92148 604.451 297.4078 Z M 601.43195 294.9377 C 601.43195 295.76106 601.1575 296.58443 601.1575 297.13334 C 600.6256 299.98473 599.1806 302.5857 597.0406 304.5437 L 596.21725 305.36707 C 595.91975 305.58076 595.7223 305.90655 595.6705 306.26917 C 595.6187 306.63178 595.717 306.99983 595.9428 307.28827 L 596.7662 308.93502 C 597.0406 309.48394 597.0406 310.3073 596.4917 310.58177 C 596.0202 310.93582 595.4058 311.0382 594.84496 310.85622 C 594.35454 310.64055 593.9628 310.2488 593.7471 309.7584 C 593.4127 309.3397 593.1358 308.8782 592.92376 308.3861 C 592.62115 308.09717 592.23864 307.9059 591.8259 307.8372 C 591.277 307.8372 591.277 308.3861 591.00256 308.66056 L 591.00256 309.7584 C 590.9558 311.69014 590.7724 313.61616 590.45364 315.522 C 590.0711 319.0672 588.16844 322.27172 585.23895 324.30464 L 584.69 324.85356 C 584.1035 325.421 583.8906 326.27253 584.1411 327.04922 C 584.69 328.97042 585.23895 331.1661 585.78786 333.36174 C 586.3368 335.5574 586.61124 336.38078 587.16015 338.02752 C 587.3151 339.01734 588.09154 339.7938 589.08136 339.94873 L 604.451 339.94873 C 605.1939 340.00723 605.941 339.91385 606.64664 339.67427 C 607.26284 339.5696 607.7815 339.15463 608.0189 338.57644 C 608.2934 338.02752 608.2934 337.75306 608.56784 337.20415 L 611.03796 328.97042 C 611.2615 328.45184 611.3557 327.88672 611.3124 327.32368 C 611.3124 326.77476 611.03796 325.9514 610.48905 325.9514 C 609.99696 325.73933 609.53544 325.4624 609.11676 325.128 C 607.8098 324.6283 606.6689 323.77264 605.8233 322.6579 C 604.99765 321.62553 604.263 320.52358 603.6276 319.3644 C 603.02674 318.17892 602.8338 316.8283 603.0787 315.522 C 603.0787 314.9731 603.35315 314.69863 603.6276 314.1497 C 604.0027 313.8054 604.4908 313.61014 604.9999 313.6008 L 605.8233 313.6008 C 607.0907 313.8286 608.37876 313.9206 609.6657 313.87526 C 610.4086 313.93377 611.1557 313.8404 611.8613 313.6008 C 612.6847 313.32634 613.2336 312.77743 613.2336 312.2285 C 613.5088 311.33434 613.5088 310.3781 613.2336 309.48394 L 612.9592 305.0926 L 612.9592 304.26924 C 614.6059 303.44587 617.3505 302.07358 617.076 301.79912 C 615.43075 299.10346 614.05195 296.25394 612.9592 293.29094 C 612.7196 292.06635 612.3516 290.87043 611.8613 289.723 C 611.8613 289.44853 611.5869 289.17408 611.3124 288.89962 C 611.03796 288.62516 610.48905 288.3507 609.9401 288.89962 L 609.3912 289.44853 C 608.1199 291.3265 606.29824 292.76465 604.1765 293.5654 C 602.2553 293.29094 601.7064 294.1143 601.43195 294.9377 Z" fill="#f9d6a4"/>
          </g>
        </g>
        <g id="Group_59">
          <g id="Graphic_60">
            <path d="M 573.4373 300.15238 L 573.9862 300.15238 L 579.7498 298.50563 C 581.6817 297.8788 583.45895 296.84988 584.9645 295.4866 C 586.37665 294.12505 587.4161 292.42414 587.9835 290.54636 C 588.8069 288.07625 589.9047 285.8806 590.7281 283.41047 C 590.7281 283.136 591.00256 282.86155 591.00256 282.5871 C 591.00256 282.31264 591.00256 281.76372 590.45364 281.76372 C 590.0668 281.72265 589.67785 281.81988 589.3558 282.03818 L 587.7091 282.86155 C 584.38245 284.82136 581.488 287.4357 579.2009 290.54636 C 577.55414 292.74202 575.9074 295.21214 573.9862 297.68226 C 573.43884 298.2534 572.97666 298.90046 572.6139 299.60346 L 572.6139 300.15238 Z" fill="#f9d6a4"/>
          </g>
        </g>
        <g id="Group_57">
          <g id="Graphic_58">
            <path d="M 519.36913 556.7702 C 517.4201 553.9976 515.0058 551.58336 512.23324 549.6343 C 509.28354 547.544 506.1618 545.7077 502.9017 544.14515 C 498.85354 542.18664 494.6255 540.6241 490.27663 539.4794 C 486.43095 538.517 482.8001 536.84125 479.5728 534.53914 C 475.4559 531.5201 471.6135 528.2266 467.7711 525.2076 C 466.12437 523.8353 464.4776 522.463 462.8309 520.81626 C 461.18413 519.1695 458.98847 516.97386 457.06727 515.3271 L 449.93137 508.1912 L 449.108 507.36784 C 447.7357 505.7211 446.08896 504.3488 444.7167 502.70206 C 444.16776 501.8787 443.3444 501.3298 442.79547 500.5064 C 442.24656 499.683 441.69764 499.1341 441.14873 498.31074 C 440.48144 497.3223 440.72514 495.982 441.69764 495.2917 C 442.73 494.4661 443.83196 493.73146 444.99113 493.09605 C 447.46125 491.9982 450.20583 490.9004 452.67595 489.80256 L 463.3798 485.6857 C 468.04557 483.7645 472.9858 482.11774 477.6516 480.471 C 479.5728 479.6476 481.494 479.0987 483.4152 478.27534 C 483.68965 478.0009 484.513 478.0009 484.23857 477.45197 C 483.9641 476.90305 483.4152 476.90305 483.14073 476.90305 C 481.76845 476.6286 480.6706 476.6286 479.29833 476.35414 C 477.45094 476.2143 475.6163 475.9391 473.8092 475.53076 C 469.96677 474.7074 466.3988 473.60956 462.8309 472.51173 L 460.0863 471.4139 C 459.0565 470.8674 457.82263 470.8674 456.7928 471.4139 L 453.7738 472.7862 C 450.20583 474.7074 446.6379 476.6286 443.06993 478.82425 C 438.4207 481.5885 433.93077 484.6123 429.6215 487.88135 C 427.68785 489.3087 425.93654 490.96785 424.4068 492.8216 C 423.8579 493.64496 423.309 494.1939 422.76007 495.01725 C 422.20096 495.64236 422.20096 496.5878 422.76007 497.2129 C 423.31317 498.1006 423.95703 498.92844 424.68127 499.683 L 429.0726 504.07435 L 430.4449 505.44664 L 435.6596 509.83796 L 439.502 512.857 L 444.4422 516.97386 L 448.83354 520.5418 L 454.04823 524.65867 L 460.36076 529.5989 L 466.6733 534.53914 L 473.8092 540.0283 L 479.29833 544.4196 L 483.9641 547.98756 C 485.4405 549.19264 486.6547 550.68706 487.53206 552.3789 C 488.081 553.4767 488.6299 554.3001 489.1788 555.3979 C 491.48004 559.3569 494.4518 562.8859 497.96144 565.8273 C 501.0787 568.3912 504.91423 569.9254 508.93975 570.2186 C 509.86346 570.278 510.79066 570.1853 511.6843 569.9442 C 511.9588 569.9442 512.23324 569.6697 512.5077 569.39525 C 512.78215 569.1208 512.78215 568.84634 512.78215 568.2974 C 512.78215 567.7485 512.78215 568.02296 512.5077 567.7485 C 511.59235 565.5253 510.2916 563.4812 508.6653 561.71044 C 507.2364 560.28345 505.674 558.99676 503.9995 557.868 C 503.4506 557.5936 503.17614 557.04466 502.6272 556.7702 C 502.354 556.2553 502.354 555.6384 502.6272 555.12346 C 502.96097 554.5536 503.66506 554.3189 504.27397 554.57454 L 505.9207 555.3979 C 507.56746 556.2213 509.2142 557.04466 511.1354 557.868 C 513.2589 558.6734 515.46975 559.2261 517.7224 559.5148 L 519.0947 559.5148 C 519.6436 559.5148 520.1925 559.2403 519.91805 558.1425 C 519.91805 557.5936 519.6436 557.3191 519.36913 556.7702 Z" fill="#f9d6a4"/>
          </g>
        </g>
        <g id="Group_55">
          <g id="Graphic_56">
            <path d="M 586.0623 318.8155 C 586.9052 317.007 587.372 315.04617 587.4346 313.0519 L 587.4346 312.2285 C 587.4346 311.13068 586.8857 310.85622 585.78786 311.13068 L 585.23895 311.13068 C 581.94546 312.2285 578.3775 313.32634 575.084 314.1497 C 571.6953 314.92946 568.5132 316.4269 565.75246 318.54104 C 562.90125 320.8146 561.1948 324.2275 561.0867 327.8726 C 561.0867 329.24488 561.6356 329.7938 563.0079 329.24488 C 564.70446 328.57184 566.4472 328.0215 568.2226 327.59813 C 569.63404 327.311 570.8981 326.5331 571.7905 325.40247 C 572.2092 325.06808 572.6707 324.79116 573.1628 324.5791 C 573.7117 324.5791 574.26065 324.30464 575.084 324.30464 C 577.34275 324.04895 579.5577 323.4952 581.671 322.6579 C 583.4783 321.8329 585.0047 320.49726 586.0623 318.8155 Z" fill="#f9d6a4"/>
          </g>
        </g>
        <g id="Group_53">
          <g id="Graphic_54">
            <path d="M 527.3284 429.14743 C 527.8773 426.6773 528.1518 424.2072 528.7007 421.7371 C 528.97515 420.3648 528.97515 418.9925 529.2496 417.6202 C 529.52406 416.24793 529.52406 414.6012 529.52406 412.95444 L 529.52406 409.3865 C 529.52406 408.28866 529.2496 407.19083 529.2496 406.36746 C 528.8201 404.95036 528.26915 403.57297 527.60286 402.2506 C 525.58336 398.6296 522.64976 395.60136 519.0947 393.46795 L 518.2713 392.91904 C 517.96215 392.67345 517.53866 392.6293 517.1855 392.8059 C 516.83237 392.98247 516.6136 393.34773 516.62456 393.7424 L 516.62456 407.4653 C 516.62456 411.8566 516.899 415.97347 516.899 420.09033 L 516.899 425.03057 C 516.899 427.5007 516.899 430.5197 516.62456 433.53876 C 516.3501 435.45996 516.3501 437.38116 516.07564 439.30236 C 515.8084 441.6325 514.85287 443.8302 513.33107 445.6149 C 511.9791 447.2017 510.4081 448.5879 508.6653 449.73175 C 506.1952 451.65295 503.4506 453.2997 500.9805 454.94645 C 500.2775 455.3092 499.6304 455.7714 499.0593 456.31873 C 498.51036 456.86765 498.51036 456.86765 498.51036 457.1421 C 498.51036 457.41656 499.0593 457.691 499.33373 457.691 L 500.1571 457.691 C 501.25493 457.691 502.0783 457.41656 503.17614 457.41656 C 504.1905 457.4746 505.2079 457.3821 506.1952 457.1421 C 508.1451 456.81495 510.07066 456.3565 511.9588 455.7698 C 514.9034 454.9118 517.94927 454.45033 521.0159 454.39753 L 521.83925 454.39753 C 522.72016 454.332 523.4205 453.6317 523.486 452.7508 L 523.486 450.8296 C 523.1656 448.36135 523.25833 445.857 523.76045 443.41923 C 525.2393 438.73906 526.4308 433.9729 527.3284 429.14743 Z" fill="#f9d6a4"/>
          </g>
        </g>
        <g id="Group_51">
          <g id="Graphic_52">
            <path d="M 549.285 332.2639 C 549.55947 333.36174 550.1084 333.91066 551.2062 333.6362 C 551.4807 333.6362 551.7551 333.36174 552.0296 333.36174 L 555.872 331.98946 L 556.9698 331.44054 C 557.3702 331.3314 557.7108 331.06767 557.9167 330.70736 C 558.1226 330.34704 558.1769 329.9197 558.06765 329.51934 C 558.0959 328.22116 558.2802 326.9311 558.61657 325.67693 C 559.3378 321.31705 561.95 317.4992 565.75246 315.24754 C 569.00327 313.36097 572.5189 311.9732 576.18185 311.13068 C 578.3224 310.61643 580.4303 309.9749 582.4944 309.20948 C 584.12346 308.72253 585.6236 307.8787 586.8857 306.73936 C 587.8928 305.42114 589.3655 304.53752 591.00256 304.26924 C 594.17794 303.5106 596.6965 301.09696 597.58954 297.9567 C 598.04145 296.53925 598.22755 295.0505 598.13846 293.5654 C 598.02 292.87486 598.222 292.16792 598.6874 291.6442 C 599.1766 291.10207 599.8786 290.80122 600.6086 290.82082 C 603.161 290.26768 605.2997 288.53638 606.3722 286.15504 C 606.6269 285.8011 606.7128 285.35293 606.60705 284.92988 C 606.5013 284.50683 606.2146 284.15182 605.8233 283.95938 L 604.9999 283.136 C 603.829 282.35965 602.5272 281.80174 601.1575 281.48926 C 600.2939 281.1128 599.33395 281.01682 598.4129 281.2148 C 596.32285 281.463 594.53426 282.83073 593.7471 284.78275 C 592.9612 286.14635 592.40484 287.62992 592.1004 289.17408 C 591.484 290.86976 590.7503 292.5205 589.9047 294.1143 C 588.4493 296.94286 586.1463 299.24586 583.31775 300.7013 C 581.3346 301.80556 579.21116 302.63647 577.0052 303.1714 C 573.4373 304.26924 569.8693 305.0926 566.3014 306.19044 C 562.90066 307.0427 559.65784 308.4325 556.69536 310.3073 C 554.4768 311.7018 552.6007 313.57792 551.2062 315.79646 C 549.4997 319.0149 548.5604 322.5843 548.46164 326.22585 C 548.46164 326.77476 548.7361 327.59813 548.7361 328.4215 C 548.7361 329.24488 549.01055 330.89163 549.285 332.2639 Z" fill="#f9d6a4"/>
          </g>
        </g>
        <g id="Group_49">
          <g id="Graphic_50">
            <path d="M 433.4639 356.9651 C 435.0657 359.91994 436.99943 362.6824 439.2275 365.1988 C 440.5998 366.84557 441.9721 368.4923 443.61885 370.13906 C 444.4422 370.96243 445.54005 371.7858 446.3634 372.60918 C 449.1115 374.85256 452.16014 376.7002 455.4205 378.09833 C 460.4075 380.05017 465.70944 381.07335 471.0646 381.11736 C 473.26383 381.16295 475.46377 381.0713 477.6516 380.8429 C 479.12913 380.7955 480.59915 380.61173 482.0429 380.294 C 484.47955 380.03667 486.8758 379.4837 489.1788 378.64724 C 492.95665 377.75913 496.56957 376.2769 499.88265 374.2559 C 502.9428 372.16074 505.71154 369.6689 508.1164 366.84557 C 512.78255 360.89193 515.7255 353.77196 516.62456 346.26125 C 516.899 344.6145 516.899 342.6933 517.1735 341.04656 C 517.1735 340.2232 516.899 339.67427 516.899 338.8509 C 516.9157 337.07903 516.63744 335.31673 516.07564 333.6362 C 515.4805 330.84485 514.4624 328.1608 513.0566 325.67693 C 512.83004 325.03564 512.3256 324.5312 511.6843 324.30464 C 511.0337 324.1235 510.337 324.22303 509.7631 324.5791 C 509.48866 324.5791 509.2142 324.85356 508.93975 324.85356 C 508.25013 325.22294 507.90826 326.02064 508.1164 326.77476 C 508.1851 327.18748 508.37635 327.57 508.6653 327.8726 C 510.2787 332.1737 511.11505 336.7273 511.1354 341.321 L 511.1354 346.5357 C 510.3452 350.5618 508.9576 354.44713 507.01854 358.06292 C 504.6828 362.00043 501.60725 365.4488 497.96144 368.21785 C 494.90004 370.66027 491.4731 372.6053 487.8065 373.98146 C 484.1972 375.3527 480.4056 376.185 476.55375 376.4516 C 473.62406 376.63447 470.68367 376.5426 467.7711 376.17712 C 464.2753 375.5904 460.86476 374.57647 457.6162 373.1581 C 451.79757 370.35027 446.6498 366.32565 442.521 361.3564 C 440.00486 358.2456 437.8845 354.83456 436.2085 351.2015 C 435.6596 350.10366 435.11066 348.73137 434.56175 347.3591 C 434.01283 345.9868 433.18946 345.71233 431.81717 346.5357 L 430.71934 347.3591 C 430.2289 347.57476 429.8372 347.9665 429.6215 348.4569 C 429.4395 349.01778 429.5419 349.63213 429.89597 350.10366 C 430.9938 352.2993 432.09163 354.49498 433.4639 356.9651 Z" fill="#f9d6a4"/>
          </g>
        </g>
        <g id="Group_47">
          <g id="Graphic_48">
            <path d="M 505.9207 322.6579 L 506.7441 322.6579 C 507.293 322.38344 508.1164 322.109 508.6653 321.83453 C 509.6046 321.30544 510.62456 320.93454 511.6843 320.7367 C 512.37686 320.518 513.13306 320.73405 513.6055 321.2856 C 513.94454 321.59837 514.2236 321.9704 514.4289 322.38344 C 515.54216 324.2467 516.5501 326.17094 517.4479 328.14705 C 518.2112 330.0251 518.85293 331.95026 519.36913 333.91066 C 519.58155 334.9145 520.17096 335.7986 521.0159 336.38078 L 521.83925 336.9297 C 528.0808 341.10415 534.59036 344.8632 541.32574 348.18245 C 543.02446 349.0385 544.9803 349.23407 546.8149 348.73137 C 550.6573 347.908 554.22524 346.81016 558.06765 345.71233 C 561.0442 344.96234 563.97634 344.04605 566.8503 342.96776 L 572.88836 340.7721 C 574.26065 340.2232 574.26065 339.94873 574.26065 338.57644 L 574.26065 338.02752 L 573.1628 333.6362 C 572.88836 332.81283 572.88836 331.98946 572.6139 331.1661 C 572.33944 330.3427 571.7905 330.06825 570.6927 330.06825 C 570.1095 330.1251 569.5466 330.31273 569.04595 330.61717 L 546.8149 338.302 C 545.6892 338.85227 544.3726 338.85227 543.24694 338.302 L 536.65996 335.5574 L 523.76045 329.7938 C 522.6091 329.2788 521.6489 328.41462 521.0159 327.32368 L 517.1735 320.7367 C 516.62456 319.63887 516.07564 318.8155 515.5267 317.71766 C 515.0875 316.9516 514.1657 316.60595 513.33107 316.8943 C 513.0566 316.8943 512.78215 317.16875 512.5077 317.16875 L 507.01854 319.3644 C 506.41017 319.63218 505.85296 320.00365 505.3718 320.46224 C 505.0271 320.9433 504.83574 321.5173 504.8229 322.109 C 504.78657 322.4107 504.88727 322.7128 505.09734 322.93236 C 505.3718 322.38344 505.64626 322.6579 505.9207 322.6579 Z" fill="#f9d6a4"/>
          </g>
        </g>
        <g id="Group_45">
          <g id="Graphic_46">
            <path d="M 434.2873 366.84557 C 435.3851 366.29665 435.3851 365.74774 434.8362 364.6499 L 434.2873 364.101 C 432.09163 360.8075 430.1704 357.514 428.2492 353.94606 C 427.68354 353.08946 427.2228 352.168 426.87693 351.2015 C 426.6025 350.65257 426.328 350.3781 425.7791 350.3781 C 425.3048 350.3354 424.8282 350.4307 424.4068 350.65257 C 423.03453 351.47594 421.3878 352.2993 420.0155 353.1227 C 418.341 354.2514 416.7786 355.5381 415.3497 356.9651 C 414.61697 357.64987 414.05325 358.49545 413.70297 359.4352 C 413.4285 360.2586 413.70297 360.8075 414.8008 360.8075 L 415.3497 360.8075 C 416.7076 360.3345 417.999 359.6888 419.1921 358.8863 C 419.4666 358.61184 420.0155 358.3374 420.28995 358.06292 C 420.89886 357.8073 421.60295 358.042 421.9367 358.61184 C 422.30264 359.09976 422.30264 359.77066 421.9367 360.2586 L 421.66224 360.8075 C 419.99417 362.2369 418.0235 363.26917 415.89863 363.82653 C 415.1095 364.13916 414.27576 364.32444 413.4285 364.37545 C 412.6128 364.6638 412.06444 365.4315 412.05623 366.29665 L 412.05623 367.12002 C 412.155 369.17224 412.52413 371.20245 413.15406 373.1581 C 413.18306 373.36615 413.27947 373.55897 413.4285 373.707 C 413.69085 374.2213 414.22355 374.54093 414.8008 374.5304 L 415.89863 374.5304 C 417.7691 374.013 419.6029 373.37115 421.3878 372.60918 L 431.26825 368.21785 C 432.30203 367.82335 433.3103 367.36504 434.2873 366.84557 Z" fill="#f9d6a4"/>
          </g>
        </g>
        <g id="Group_43">
          <g id="Graphic_44">
            <path d="M 480.39616 359.4352 C 481.494 359.16075 482.5918 358.8863 483.4152 358.61184 C 486.36266 357.7079 489.2128 356.5127 491.9234 355.0439 C 494.46836 353.65144 496.8601 351.9956 499.0593 350.10366 C 502.39137 347.09467 505.09624 343.4571 507.01854 339.3998 C 507.8144 338.08354 508.1069 336.52367 507.8419 335.0085 C 507.5493 333.40943 507.0893 331.84558 506.4696 330.3427 C 506.4696 330.06825 506.1952 329.7938 505.9207 329.51934 C 505.64626 329.24488 505.09734 329.24488 505.09734 329.7938 C 505.09734 330.3427 504.8229 330.89163 504.5484 331.44054 C 504.12386 333.12616 503.5734 334.77754 502.9017 336.38078 C 501.0742 340.49426 498.3556 344.1503 494.9424 347.08462 C 491.9787 349.52234 488.6427 351.4683 485.06194 352.84823 C 483.4152 353.39715 482.0429 353.94606 480.39616 354.49498 C 479.6067 354.73445 478.9889 355.35225 478.7494 356.14172 C 478.50404 356.75054 478.40987 357.40975 478.47496 358.06292 L 478.47496 358.61184 C 478.47496 359.4352 478.7494 359.70967 480.39616 359.4352 Z" fill="#f9d6a4"/>
          </g>
        </g>
        <g id="Group_41">
          <g id="Graphic_42">
            <path d="M 445.8145 342.1444 C 447.32227 341.03286 449.1565 340.45362 451.0292 340.49764 L 453.22486 340.49764 C 453.52656 340.46133 453.82866 340.56203 454.04823 340.7721 C 454.7019 340.9035 455.17214 341.47766 455.17214 342.1444 C 455.17214 342.8111 454.7019 343.3853 454.04823 343.51667 C 453.7738 343.51667 453.4993 343.79113 453.22486 343.79113 L 452.4015 343.79113 C 452.12703 343.79113 451.85257 344.0656 451.5781 344.34005 C 451.30366 344.6145 451.30366 344.88896 451.5781 345.43788 C 451.82577 346.4767 451.62667 347.57175 451.0292 348.4569 C 450.41543 349.5694 449.2779 350.2933 448.01017 350.3781 C 446.9843 350.40083 445.9937 350.0033 445.26814 349.27774 C 444.54256 348.55216 444.14504 347.56157 444.16776 346.5357 C 443.73086 344.87088 444.39065 343.11143 445.8145 342.1444 Z M 443.06993 356.9651 C 444.4753 358.9171 446.0356 360.75277 447.7357 362.45425 C 448.67256 363.44274 449.6817 364.36014 450.75474 365.1988 C 454.3449 368.20444 458.5664 370.3621 463.10533 371.51135 C 465.2716 372.0999 467.4712 372.55815 469.6923 372.88363 C 470.7473 373.1385 471.8215 372.54175 472.16243 371.51135 C 472.4369 370.96243 472.4369 370.4135 472.71135 369.8646 C 473.5126 367.3459 474.1543 364.77922 474.63255 362.1798 C 475.2844 359.1096 475.6519 355.98587 475.7304 352.84823 L 475.7304 349.2803 C 475.68356 347.4395 475.5001 345.60474 475.18147 343.79113 C 474.7032 341.1917 474.06154 338.625 473.26026 336.1063 C 472.92746 335.10565 473.02693 334.01154 473.5347 333.0873 C 473.5347 332.81283 473.8092 332.53837 473.8092 332.2639 C 474.34655 330.86187 474.6255 329.37408 474.63255 327.8726 L 474.63255 325.9514 C 474.5804 325.19287 474.3946 324.44954 474.08364 323.75573 C 473.5347 322.109 472.71135 321.01115 470.5157 321.83453 L 470.24123 321.83453 C 467.49237 322.3508 465.26554 324.36557 464.4776 327.04922 C 464.20316 327.8726 464.20316 328.69597 463.9287 329.51934 C 463.65425 331.1661 463.10533 331.44054 461.73304 331.44054 C 461.2587 331.48326 460.78216 331.38795 460.36076 331.1661 C 459.28936 330.84974 458.18335 330.6654 457.06727 330.61717 C 455.3868 330.6226 453.7184 330.9007 452.12703 331.44054 C 448.7531 332.53264 445.59535 334.2044 442.79547 336.38078 C 441.14873 337.75306 439.502 339.12535 438.1297 340.49764 C 437.44294 340.9385 436.9517 341.62623 436.7574 342.41884 C 436.52727 343.28248 436.73207 344.2041 437.3063 344.88896 C 438.2583 349.30914 440.2322 353.44494 443.06993 356.9651 Z" fill="#f9d6a4"/>
          </g>
        </g>
        <g id="Group_39">
          <g id="Graphic_40">
            <path d="M 609.3912 371.7858 L 609.3912 370.13906 C 609.3912 368.76677 608.56784 368.21785 607.19555 368.4923 C 605.7518 368.81005 604.2818 368.9938 602.8042 369.04123 C 599.9698 369.3615 597.1039 369.26906 594.29605 368.76677 C 591.3735 368.42447 588.5111 367.6858 585.78786 366.5711 L 583.31775 365.4733 C 582.9024 365.19577 582.3608 365.19577 581.94546 365.4733 C 581.32614 365.93126 580.9278 366.6284 580.8476 367.3945 C 580.809 368.19384 581.23716 368.94315 581.94546 369.3157 L 582.7688 369.8646 C 588.5843 372.70253 594.9612 374.20297 601.43195 374.2559 C 602.80994 374.30126 604.189 374.2093 605.5488 373.98146 C 606.48185 373.9055 607.4029 373.7213 608.2934 373.43255 C 609.11676 373.43255 609.3912 372.60918 609.3912 371.7858 Z" fill="#f9d6a4"/>
          </g>
        </g>
        <g id="Group_37">
          <g id="Graphic_38">
            <path d="M 642.87504 328.4215 C 642.5625 328.14195 642.08976 328.14195 641.7772 328.4215 L 640.9538 329.24488 C 640.6794 329.7938 640.4049 330.06825 640.4049 330.61717 C 635.4647 345.43788 630.52445 359.98413 625.5842 374.80484 C 624.4864 378.3728 623.1141 381.94073 622.0163 385.5087 C 621.7927 386.02726 621.69855 386.5924 621.7418 387.15543 C 621.7418 387.70434 622.0163 387.9788 622.5652 387.70434 C 623.1141 387.4299 623.38855 387.15543 623.663 386.88097 C 625.3927 385.41047 626.7158 383.52038 627.5054 381.3918 L 632.44565 366.5711 L 638.4837 348.73137 C 640.4049 342.6933 642.6006 336.9297 644.5218 330.89163 C 644.7707 330.4803 644.8678 329.9948 644.79624 329.51934 C 644.3383 328.9 643.6411 328.50165 642.87504 328.4215 Z" fill="#f9d6a4"/>
          </g>
        </g>
        <g id="Group_35">
          <g id="Graphic_36">
            <path d="M 657.4213 359.70967 C 662.7748 363.7133 668.8233 366.69104 675.261 368.4923 C 678.829 369.3157 682.1225 370.13906 685.6904 370.68797 C 687.504 371.0066 689.3388 371.19006 691.1796 371.2369 C 693.3674 371.46527 695.5673 371.55693 697.76655 371.51135 C 699.41806 371.5568 701.0705 371.465 702.7068 371.2369 C 703.5302 370.96243 703.8046 370.68797 703.2557 369.8646 C 702.585 369.15743 701.85 368.51425 701.06004 367.9434 C 695.6145 364.11003 689.931 360.62655 684.0437 357.514 C 672.6581 351.50255 660.58524 346.8946 648.0897 343.79113 C 647.5408 343.79113 647.26636 343.51667 646.71744 343.51667 C 646.1685 343.51667 645.6196 344.0656 645.8941 344.6145 C 646.1685 345.1634 646.1685 345.43788 646.1685 345.71233 C 648.0678 349.4791 650.57105 352.90945 653.5789 355.86726 C 654.6456 357.34562 655.9429 358.64296 657.4213 359.70967 Z" fill="#f9d6a4"/>
          </g>
        </g>
        <g id="Group_33">
          <g id="Graphic_34">
            <path d="M 668.67405 297.68226 C 662.5568 299.13767 657.0137 302.38707 652.7555 307.0138 C 652.26946 307.42865 651.9724 308.02282 651.9321 308.66056 C 651.6936 309.83397 651.6014 311.03242 651.6577 312.2285 C 651.7028 313.33347 651.6106 314.43975 651.3832 315.522 C 651.0353 318.41627 650.3915 321.26723 649.462 324.0302 L 649.462 325.40247 C 649.462 326.22585 649.7365 326.22585 650.2854 326.5003 C 650.9975 326.71046 651.7391 326.80316 652.48105 326.77476 C 653.3139 326.8194 654.1484 326.72667 654.9512 326.5003 C 656.842 326.3364 658.6948 325.8732 660.4403 325.128 C 663.7992 323.80175 666.8734 321.8454 669.4974 319.3644 C 671.97966 317.06305 674.18976 314.4846 676.0844 311.6796 C 678.508 308.30993 680.62084 304.7273 682.3969 300.97575 C 682.6714 300.42684 682.94584 299.60346 683.2203 299.05455 C 683.49986 298.742 683.49986 298.26927 683.2203 297.9567 C 682.94584 297.68226 682.6714 297.4078 682.3969 297.4078 C 681.6078 297.09518 680.77406 296.9099 679.9268 296.8589 L 674.9866 296.8589 C 672.8547 296.8443 670.73085 297.12133 668.67405 297.68226 Z" fill="#f9d6a4"/>
          </g>
        </g>
        <g id="Group_31">
          <g id="Graphic_32">
            <path d="M 665.38056 336.65523 C 664.0083 336.9297 662.3615 336.9297 660.4403 337.20415 C 657.0873 337.7679 653.7837 338.5938 650.55985 339.67427 C 650.2854 339.67427 650.0109 339.94873 649.7365 340.2232 C 649.4978 340.2996 649.33586 340.5215 649.33586 340.7721 C 649.33586 341.0227 649.4978 341.2446 649.7365 341.321 C 650.2854 341.59547 650.8343 341.59547 651.3832 341.86993 L 659.8914 344.34005 C 666.8619 346.56133 673.6518 349.314 680.2013 352.57377 C 684.42935 354.5542 688.5518 356.75284 692.55186 359.16075 C 695.84535 361.08196 699.1388 363.55208 702.7068 365.74774 C 703.0094 366.03667 703.3919 366.22793 703.8046 366.29665 C 704.3535 366.29665 704.628 366.0222 704.3535 365.74774 C 704.12954 365.08686 703.85425 364.4445 703.5302 363.82653 C 702.7151 362.3027 701.79815 360.8356 700.7856 359.4352 C 699.1795 356.80703 697.3425 354.3271 695.2964 352.02486 C 693.39725 349.80824 691.2827 347.78564 688.9839 345.9868 C 686.0802 343.74932 682.9531 341.81787 679.65235 340.2232 C 675.2811 337.82622 670.3655 336.5973 665.38056 336.65523 Z" fill="#f9d6a4"/>
          </g>
        </g>
        <g id="Group_29">
          <g id="Graphic_30">
            <path d="M 621.7418 407.19083 C 621.5431 407.62013 621.44905 408.0904 621.46735 408.5631 C 621.46735 409.11203 621.7418 409.11203 622.2907 409.11203 C 622.7828 408.89997 623.2443 408.62306 623.663 408.28866 C 624.7495 407.2459 625.5119 405.9117 625.8587 404.44625 C 626.4231 402.81757 627.15914 401.2535 628.0543 399.78047 C 628.3288 399.23156 628.60325 398.9571 628.8777 398.4082 C 629.93336 395.96865 630.58235 393.3727 630.7989 390.72338 C 630.8298 389.15894 631.3058 387.6357 632.1712 386.33205 C 633.70434 384.0499 635.0798 381.66574 636.28806 379.19616 C 638.1595 375.73626 639.80954 372.16113 641.2283 368.4923 C 642.8295 364.6949 644.02545 360.7391 644.79624 356.69064 C 645.0707 355.5928 645.0707 354.49498 645.34516 353.6716 C 645.4101 352.985 645.2141 352.2991 644.79624 351.7504 L 643.9729 350.10366 C 643.5532 349.34883 643.0952 348.616 642.6006 347.908 C 642.0517 347.08462 641.50275 347.3591 640.9538 347.908 C 640.6494 348.40866 640.4618 348.97154 640.4049 349.55474 C 639.3071 353.1227 638.20926 356.4162 636.837 359.98413 C 634.0924 367.9434 631.6223 375.6282 628.8777 383.5875 C 628.3885 385.13445 627.54234 386.5447 626.4076 387.70434 L 622.5652 391.54675 C 621.9584 392.0661 621.48735 392.7255 621.1929 393.46795 C 620.3677 394.7162 620.3677 396.3366 621.1929 397.5848 L 622.2907 399.78047 C 622.9349 400.96093 623.035 402.36285 622.5652 403.6229 C 622.3622 404.82757 622.0872 406.019 621.7418 407.19083 Z" fill="#f9d6a4"/>
          </g>
        </g>
        <g id="Group_27">
          <g id="Graphic_28">
            <path d="M 626.9565 297.68226 L 626.9565 302.07358 C 627.2809 304.5665 627.739 307.04017 628.3288 309.48394 C 629.4239 312.7727 631.0968 315.83977 633.269 318.54104 C 635.6943 321.2682 638.6937 323.42403 642.0517 324.85356 C 642.635 325.19693 643.2962 325.38586 643.9729 325.40247 C 644.3882 325.68 644.9298 325.68 645.34516 325.40247 C 645.8941 325.128 645.8941 324.85356 646.1685 324.5791 C 646.443 324.30464 646.443 323.75573 646.71744 323.2068 C 647.5539 320.9038 648.1069 318.50756 648.3642 316.0709 C 648.6829 314.16507 648.86635 312.23906 648.9131 310.3073 C 648.9674 308.83806 648.8755 307.36704 648.63865 305.916 C 648.3642 304.26924 648.0897 302.6225 647.8153 300.7013 C 645.8747 293.21515 641.4167 286.62502 635.1902 282.03818 L 632.1712 279.84252 C 630.7989 279.01915 629.9755 279.2936 629.7011 280.6659 C 629.6442 281.2491 629.4566 281.81197 629.15216 282.31264 C 628.60325 285.0572 628.0543 287.8018 627.7799 290.54636 C 627.7799 292.1931 627.23096 293.5654 627.23096 295.21214 C 627.0046 296.0149 626.9119 296.8494 626.9565 297.68226 Z" fill="#f9d6a4"/>
          </g>
        </g>
        <g id="Group_25">
          <g id="Graphic_26">
            <path d="M 620.09506 343.2422 L 628.60325 347.908 C 628.8777 347.908 629.15216 348.18245 629.4266 348.18245 C 629.5254 348.30952 629.67735 348.38385 629.8383 348.38385 C 629.99926 348.38385 630.1512 348.30952 630.25 348.18245 C 630.5419 348.15693 630.7734 347.92547 630.7989 347.63354 L 631.0734 347.08462 C 631.6822 344.93964 632.4153 342.8319 633.269 340.7721 C 633.6086 339.93747 633.2503 338.982 632.44565 338.57644 C 632.1712 338.57644 632.1712 338.302 631.8967 338.302 L 623.1141 332.81283 C 622.8945 332.60276 622.5924 332.50206 622.2907 332.53837 L 621.46735 332.53837 C 621.1754 332.5639 620.94396 332.79535 620.9184 333.0873 C 620.70836 333.30686 620.60766 333.60896 620.644 333.91066 C 620.09506 335.5574 619.8206 337.4786 619.2717 339.12535 C 618.9972 339.94873 618.9972 340.7721 618.7228 341.321 C 618.7609 342.17615 619.2985 342.92884 620.09506 343.2422 Z" fill="#f9d6a4"/>
          </g>
        </g>
        <g id="Group_23">
          <g id="Graphic_24">
            <path d="M 651.1088 301.52467 C 651.3832 302.6225 652.2066 302.89695 653.3044 302.34804 L 653.5789 302.07358 C 655.8736 300.1778 658.3567 298.5224 660.9892 297.13334 C 661.2637 296.8589 661.53815 296.8589 661.8126 296.58443 C 662.0729 296.4819 662.27935 296.2765 662.38325 296.01676 C 662.48715 295.757 662.4793 295.4659 662.3615 295.21214 C 662.4026 294.82527 662.3054 294.43635 662.0871 294.1143 C 661.4429 292.41493 660.5148 290.83725 659.3425 289.44853 C 658.7282 288.2906 657.6143 287.48055 656.32346 287.25287 L 654.6767 287.25287 C 652.3991 287.53542 650.2287 288.3847 648.3642 289.723 C 647.8314 290.09947 647.5223 290.7176 647.5408 291.36974 C 647.5408 291.6442 647.8153 291.91865 647.8153 292.1931 C 648.3642 293.5654 649.1876 294.9377 649.7365 296.58443 C 650.2854 298.23118 650.55985 299.87792 651.1088 301.52467 Z" fill="#f9d6a4"/>
          </g>
        </g>
        <g id="Group_21">
          <g id="Graphic_22">
            <path d="M 617.3505 399.23156 C 617.00615 399.60666 616.8109 400.09475 616.8016 400.60385 C 613.7825 409.3865 611.03796 418.16913 608.0189 426.95177 C 607.8202 427.38107 607.7262 427.85137 607.7445 428.32406 C 607.7445 428.873 607.7445 429.14743 608.0189 429.4219 C 608.456 429.8455 609.0619 430.04746 609.6657 429.9708 C 610.2819 429.8661 610.8006 429.45117 611.03796 428.873 C 611.3124 428.5985 611.3124 428.32406 611.3124 427.77515 L 619.54615 403.3484 C 619.768 402.927 619.8633 402.45046 619.8206 401.97614 C 619.7725 400.8298 619.28035 399.7471 618.4483 398.9571 C 618.4483 398.4082 617.8994 398.68264 617.3505 399.23156 Z" fill="#f9d6a4"/>
          </g>
        </g>
        <g id="Group_19">
          <g id="Graphic_20">
            <path d="M 613.5081 328.69597 C 612.9021 331.11153 612.1692 333.49346 611.3124 335.83186 C 610.7635 337.4786 610.48905 338.8509 609.9401 340.49764 C 609.5789 341.8509 608.3198 342.7666 606.9211 342.6933 L 586.61124 342.6933 C 585.5198 342.646 584.60734 341.8476 584.4156 340.7721 L 583.86666 339.3998 L 581.1221 329.24488 C 581.06524 328.66168 580.8776 328.0988 580.5732 327.59813 C 580.27946 326.9473 579.64015 326.5211 578.9264 326.5003 C 577.9899 326.55023 577.0655 326.7351 576.18185 327.04922 C 575.63293 327.04922 575.084 327.8726 575.084 328.4215 L 575.084 329.24488 C 575.3524 330.73133 575.7192 332.19832 576.18185 333.6362 C 577.2797 338.57644 578.3775 343.79113 579.47534 348.73137 C 580.2987 352.2993 581.1221 356.14172 581.94546 359.70967 C 582.27815 361.03365 583.1837 362.14043 584.4156 362.7287 C 589.14636 364.91588 594.2989 366.04006 599.51074 366.0222 C 600.43415 366.06717 601.3591 365.97467 602.2553 365.74774 C 604.10245 365.85138 605.95444 365.6662 607.7445 365.1988 C 608.7302 365.0359 609.50274 364.26334 609.6657 363.2776 L 610.48905 359.98413 C 612.9592 350.65257 615.1548 341.321 617.62494 331.98946 C 617.8994 331.1661 618.17386 330.06825 618.4483 329.24488 C 618.6314 328.76974 618.5804 328.23614 618.3105 327.80434 C 618.0406 327.37254 617.58336 327.09283 617.076 327.04922 C 616.5271 327.04922 615.9782 326.77476 615.4293 326.77476 C 614.4946 327.03103 613.76434 327.76127 613.5081 328.69597 Z" fill="#f9d6a4"/>
          </g>
        </g>
        <g id="Group_17">
          <g id="Graphic_18">
            <path d="M 640.1305 282.5871 L 642.0517 284.5083 C 642.87504 285.33167 643.6984 286.4295 644.5218 287.25287 C 645.0421 287.73637 645.8081 287.8458 646.443 287.52733 C 646.9919 287.25287 647.26636 286.9784 647.8153 286.70396 C 650.64774 285.05804 653.871 284.20483 657.1468 284.23384 C 657.8768 284.21424 658.5788 284.5151 659.068 285.0572 C 660.38355 286.1341 661.4985 287.43488 662.3615 288.89962 C 663.4497 290.29956 664.2856 291.87844 664.83164 293.5654 C 665.38056 294.9377 665.655 294.9377 667.3018 294.9377 L 667.5762 294.9377 C 669.26186 294.39707 671.0207 294.11935 672.7909 294.1143 C 673.3398 294.1143 673.6143 293.83985 674.1632 293.83985 C 674.5191 293.7743 674.8235 293.5454 674.9854 293.22172 C 675.1472 292.89805 675.14765 292.51716 674.9866 292.1931 C 674.9866 291.91865 674.7121 291.91865 674.7121 291.6442 C 673.856 290.3628 672.6023 289.39843 671.1442 288.89962 C 670.45036 288.58866 669.707 288.40283 668.9485 288.3507 C 668.4344 288.36606 667.9368 288.16858 667.5731 287.8049 C 667.2094 287.44123 667.01195 286.9436 667.0273 286.4295 C 667.0273 285.8806 666.75285 285.33167 666.75285 284.78275 C 665.9949 282.01815 664.5829 279.4765 662.636 277.3724 C 661.9939 276.5016 660.9733 275.9913 659.8914 276.0001 C 658.07355 276.25456 656.311 276.81115 654.6767 277.64686 C 653.109 278.493 651.6368 279.50515 650.2854 280.6659 C 649.5646 281.4241 648.3975 281.5408 647.5408 280.94035 L 646.71744 280.6659 C 645.613 280.10484 644.3881 279.82218 643.1495 279.84252 L 641.7772 279.84252 C 641.50275 279.84252 641.2283 280.11698 640.6794 280.11698 C 639.3071 280.6659 639.3071 281.2148 640.1305 282.31264 C 639.856 282.03818 640.1305 282.31264 640.1305 282.5871 Z" fill="#f9d6a4"/>
          </g>
        </g>
        <g id="Group_15">
          <g id="Graphic_16">
            <path d="M 580.2987 386.6065 C 579.1888 388.04565 577.99754 389.4202 576.73077 390.72338 C 575.3585 392.09566 573.7117 394.5658 572.33944 396.21253 L 567.67367 401.7017 C 565.75246 403.89734 564.1057 406.36746 562.1845 408.5631 C 560.2633 410.7588 558.3421 413.2289 556.4209 415.42456 L 550.38284 422.8349 L 549.01055 424.48166 C 548.1872 425.5795 548.1872 426.1284 549.55947 426.95177 L 550.6573 427.5007 C 554.00317 429.42753 556.9775 431.93714 559.43994 434.91104 C 561.49226 437.4436 563.2423 440.20685 564.6546 443.14477 C 566.0269 445.88935 567.12475 448.6339 568.7715 451.3785 C 570.3893 454.85916 572.6205 458.0201 575.3585 460.71005 C 576.8725 462.15333 578.7846 463.1094 580.8476 463.45463 C 581.671 463.7291 582.2199 463.45463 582.7688 462.63126 C 582.9789 462.4117 583.0796 462.1096 583.0433 461.8079 C 583.5922 459.8867 584.1411 458.23994 584.69 456.31873 C 585.78786 452.47633 586.8857 448.6339 587.9835 445.06597 C 588.8069 442.3214 589.6303 439.30236 590.7281 436.28333 C 591.8259 432.4409 592.92376 428.873 594.0216 425.03057 L 598.9618 408.5631 C 600.3341 404.1718 601.7064 399.506 603.0787 395.1147 C 604.72544 389.9 606.3722 384.41085 608.0189 378.9217 C 608.2372 378.59967 608.33445 378.21074 608.2934 377.82387 C 608.2934 376.72604 608.0189 376.4516 606.9211 376.4516 C 605.8233 376.4516 605.27435 376.72604 604.451 376.72604 C 600.5087 376.9543 596.5534 376.77034 592.6493 376.17712 C 588.7786 375.4051 585.0049 374.20854 581.39654 372.60918 L 578.9264 371.2369 C 578.194 370.7565 577.2763 370.6545 576.4563 370.96243 C 575.9074 371.2369 575.084 371.2369 574.5351 371.51135 L 553.1274 378.3728 L 526.7795 386.88097 L 521.83925 388.5277 C 520.1925 389.07663 520.1925 389.9 521.5648 390.72338 C 524.3456 392.7719 526.7585 395.2776 528.7007 398.13373 C 530.9223 401.4727 532.5044 405.19527 533.3665 409.11203 C 534.7698 414.52094 535.7788 420.02454 536.3855 425.5795 C 536.94927 428.9325 537.7752 432.2361 538.8556 435.45996 C 539.5877 437.42765 540.6049 439.2771 541.87465 440.9491 L 542.698 441.7725 C 543.24694 442.04694 543.24694 441.7725 543.5214 441.498 C 543.74326 441.0766 543.8386 440.60006 543.79586 440.12574 C 543.79586 438.20453 543.5214 436.00887 543.5214 433.8132 L 543.5214 428.32406 C 543.23176 426.98445 543.53165 425.58496 544.3448 424.48166 C 545.4426 422.8349 546.8149 421.4626 547.9127 419.8159 L 552.30404 414.05227 L 556.69536 408.5631 L 560.2633 404.1718 L 564.9291 398.68264 L 568.49704 394.5658 L 572.065 390.17446 L 575.63293 385.78314 C 576.3867 384.80793 577.21236 383.8905 578.10305 383.03856 C 578.5578 382.43225 579.41794 382.30937 580.02426 382.7641 C 580.6306 383.21884 580.75345 384.079 580.2987 384.6853 C 580.7287 385.25353 580.7287 386.0383 580.2987 386.6065 Z" fill="#f9d6a4"/>
          </g>
        </g>
        <g id="Group_13">
          <g id="Graphic_14">
            <path d="M 491.6489 432.16647 C 492.1496 431.86203 492.71246 431.6744 493.29566 431.61755 C 495.4614 430.9611 497.5721 430.1352 499.6082 429.14743 C 500.10886 428.843 500.67173 428.65537 501.25493 428.5985 C 501.8322 428.58796 502.3649 428.9076 502.6272 429.4219 C 502.95116 429.964 502.835 430.6609 502.35276 431.06864 C 502.04 431.40765 501.66796 431.6867 501.25493 431.892 C 498.5363 433.2719 495.6859 434.3753 492.74675 435.1855 L 492.19783 435.1855 C 491.45213 435.28065 490.75007 434.8126 490.5511 434.08767 C 490.82555 432.98984 491.1 432.4409 491.6489 432.16647 Z M 496.8636 418.4436 C 497.06893 418.03056 497.348 417.6585 497.687 417.34576 C 499.6514 415.65586 501.48624 413.821 503.17614 411.8566 C 503.4506 411.3077 503.9995 411.03324 504.5484 410.4843 C 505.06334 410.2111 505.68026 410.2111 506.1952 410.4843 C 506.4696 410.7588 506.7441 411.03324 506.7441 411.3077 C 506.7441 411.58215 506.7441 412.13107 506.4696 412.4055 C 506.1907 412.92623 505.8186 413.39136 505.3718 413.7778 C 503.65546 415.81124 501.7229 417.6518 499.6082 419.26696 C 499.33373 419.5414 499.0593 419.5414 498.7848 419.8159 C 498.51036 420.09033 497.687 420.09033 497.4125 419.5414 C 496.8636 419.5414 496.58916 418.9925 496.8636 418.4436 Z M 488.90434 447.26163 C 488.21053 447.5726 487.4672 447.7584 486.7087 447.81055 L 480.6706 447.81055 C 479.84724 447.81055 479.02387 447.5361 478.2005 447.5361 C 477.99244 447.5071 477.7996 447.4107 477.6516 447.26163 C 477.3913 447.1591 477.18484 446.9537 477.08094 446.69396 C 476.97704 446.4342 476.9849 446.1431 477.10267 445.88935 C 477.3771 445.34043 477.6516 444.7915 478.47496 444.7915 L 481.21953 444.7915 C 482.9469 445.06616 484.70684 445.06616 486.4342 444.7915 L 488.6299 444.7915 C 489.312 444.7157 489.9264 445.20724 490.0022 445.88935 C 490.07796 446.57145 489.58645 447.18584 488.90434 447.26163 Z M 479.29833 461.5334 L 478.7494 461.5334 C 476.8957 461.2999 475.0612 460.933 473.26026 460.4356 L 470.79014 459.6122 C 470.24123 459.6122 469.96677 459.0633 469.6923 458.78885 C 469.4148 458.3735 469.4148 457.8319 469.6923 457.41656 C 469.96677 456.86765 470.24123 456.86765 470.79014 456.86765 L 472.16243 456.86765 C 473.9576 457.45367 475.79185 457.91224 477.6516 458.23994 C 478.2005 458.23994 479.02387 458.5144 479.5728 458.5144 C 480.1217 458.5144 481.21953 459.33777 480.9451 460.16114 C 480.6706 460.9845 480.6706 460.9845 480.39616 461.5334 C 480.1217 461.25897 479.84724 461.5334 479.29833 461.5334 Z M 463.3798 444.7915 C 462.90547 444.83423 462.4289 444.7389 462.0075 444.51706 C 459.29686 443.28584 456.86803 441.51093 454.8716 439.30236 C 454.5273 438.92726 454.33204 438.43917 454.3227 437.9301 C 454.3227 437.38116 454.8716 437.1067 455.14606 436.83225 C 455.4586 436.5527 455.93134 436.5527 456.2439 436.83225 C 456.7928 437.1067 457.06727 437.38116 457.6162 437.6556 C 459.2371 439.0884 460.9822 440.3743 462.8309 441.498 C 463.3798 441.7725 463.65425 442.04694 464.20316 442.3214 C 464.41323 442.54097 464.51394 442.84307 464.4776 443.14477 C 464.5187 443.53165 464.42146 443.92057 464.20316 444.2426 C 464.20316 444.51706 463.65425 444.7915 463.3798 444.7915 Z M 453.4993 396.21253 C 453.22486 396.487 453.22486 397.0359 452.9504 397.31036 C 451.8718 399.3395 450.9541 401.45014 450.20583 403.6229 C 450.20583 403.89734 449.93137 404.1718 449.93137 404.44625 C 449.79757 404.8195 449.51454 405.1202 449.1501 405.2764 C 448.7857 405.4326 448.3727 405.43013 448.01017 405.26963 C 447.46125 404.99517 447.1868 404.7207 447.1868 403.6229 C 447.2389 402.86436 447.42475 402.12103 447.7357 401.4272 C 448.39194 399.61463 449.21903 397.86854 450.20583 396.21253 C 450.5794 395.59885 451.04186 395.0439 451.5781 394.5658 C 451.99345 394.28827 452.53506 394.28827 452.9504 394.5658 C 453.25484 395.06645 453.44247 395.62933 453.4993 396.21253 Z M 451.5781 451.65295 C 451.0292 451.65295 450.75474 451.3785 450.20583 451.10404 C 448.59677 449.49353 447.1277 447.749 445.8145 445.88935 C 445.3409 445.21643 444.97085 444.4763 444.7167 443.6937 C 444.4422 442.8703 444.4422 442.3214 445.2656 441.7725 C 445.95024 441.4171 446.79324 441.65797 447.1868 442.3214 C 447.46125 442.59586 447.46125 442.8703 447.7357 443.14477 C 448.8842 445.28694 450.36653 447.2325 452.12703 448.9084 C 452.6131 449.3232 452.91017 449.9174 452.9504 450.5551 C 453.0082 450.9987 452.79104 451.43303 452.4015 451.65295 C 452.4015 451.65295 452.12703 451.9274 451.5781 451.65295 Z M 445.54005 416.5224 C 445.8145 416.02093 446.34067 415.7091 446.91234 415.7091 C 447.484 415.7091 448.01015 416.02093 448.2846 416.5224 C 448.31363 416.73045 448.41004 416.92326 448.5591 417.0713 C 448.51817 419.94516 448.88784 422.81014 449.6569 425.5795 C 449.93137 426.1284 449.38245 426.95177 448.83354 427.22623 C 448.3456 427.5922 447.6747 427.5922 447.1868 427.22623 C 446.7591 426.8802 446.4675 426.39415 446.3634 425.85394 C 446.08896 424.7561 445.8145 423.6583 445.54005 422.286 C 445.31193 420.6497 445.22013 418.99726 445.2656 417.34576 C 445.47566 417.1262 445.57636 416.8241 445.54005 416.5224 Z M 444.4422 394.5658 C 444.3735 394.9785 444.18224 395.361 443.8933 395.6636 C 442.7742 397.8058 441.7665 400.0044 440.87427 402.2506 C 440.87427 402.52505 440.5998 402.7995 440.5998 403.07397 C 440.3799 403.4635 439.9456 403.68067 439.502 403.6229 C 438.95307 403.6229 438.6786 403.6229 438.40415 403.07397 C 438.18586 402.75193 438.0886 402.363 438.1297 401.97614 C 438.40415 401.15276 438.40415 400.3294 438.6786 399.78047 C 439.33484 397.9679 440.16193 396.2218 441.14873 394.5658 C 441.4165 393.9574 441.78797 393.4002 442.24656 392.91904 C 442.6619 392.64153 443.2035 392.64153 443.61885 392.91904 C 444.1049 393.33387 444.402 393.92804 444.4422 394.5658 Z M 438.6786 426.1284 C 438.40415 426.6773 438.1297 426.95177 437.5808 426.95177 C 437.03186 426.95177 436.7574 426.6773 436.48295 426.1284 C 436.2085 425.5795 436.2085 425.30503 435.93403 424.7561 C 435.70594 423.2119 435.6141 421.65063 435.6596 420.09033 L 435.6596 417.0713 C 435.588 416.59586 435.6851 416.11035 435.93403 415.699 C 436.0366 415.43873 436.24196 415.23227 436.5017 415.12837 C 436.76145 415.02447 437.05256 415.03233 437.3063 415.1501 C 437.85524 415.1501 438.1297 415.699 438.40415 416.24793 L 438.40415 417.89467 C 438.35853 420.18525 438.4502 422.4765 438.6786 424.7561 C 438.8783 424.92817 438.9931 425.17867 438.9931 425.44226 C 438.9931 425.70584 438.8783 425.95635 438.6786 426.1284 Z M 555.0486 540.30275 C 553.6623 538.0033 551.7886 536.0359 549.55947 534.53914 C 547.342 532.9436 544.81936 531.8224 542.1491 531.24565 C 539.07333 530.4468 535.95876 529.80554 532.81755 529.32445 C 529.7985 528.7755 526.505 528.2266 523.76045 527.6777 C 521.3791 527.14426 519.07397 526.3144 516.899 525.2076 C 513.35294 523.2709 509.9583 521.06894 506.7441 518.6206 C 504.27397 516.6994 501.5294 514.7782 499.33373 512.857 C 497.1381 510.9358 495.4913 509.83796 493.5701 507.91676 C 492.2424 506.7718 491.0458 505.4831 490.0022 504.07435 C 489.2712 503.2264 488.6275 502.30686 488.081 501.3298 C 487.57044 500.71347 487.4634 499.8571 487.8065 499.1341 C 488.046 498.34464 488.6638 497.72684 489.45326 497.48737 L 489.7277 497.2129 C 491.37446 496.38954 493.0212 495.2917 494.66795 494.46834 L 504.27397 488.9792 C 508.455 486.7722 512.4888 484.2969 516.3501 481.56883 C 521.5765 478.3124 526.5327 474.64114 531.1708 470.5905 L 533.092 468.9438 C 533.7162 468.4518 534.5616 468.34614 535.2877 468.6693 C 535.8468 469.29443 535.8468 470.2399 535.2877 470.865 L 535.0132 471.13944 L 533.6409 472.51173 C 532.26864 473.60956 531.1708 474.7074 529.7985 475.8052 L 528.97515 476.6286 C 528.7651 476.84816 528.6644 477.15027 528.7007 477.45197 C 528.7262 477.7439 528.9577 477.97535 529.2496 478.0009 L 529.7985 478.0009 C 532.26864 478.0009 535.0132 478.27534 537.48333 478.27534 L 538.8556 478.27534 C 540.3065 478.55007 541.79606 478.55007 543.24694 478.27534 C 543.9607 478.25454 544.6 477.82834 544.8937 477.1775 C 545.14263 476.76617 545.23973 476.28067 545.16814 475.8052 C 545.16814 472.7862 545.16814 470.0416 544.8937 467.0226 C 544.7562 464.37127 544.7562 461.7146 544.8937 459.0633 C 544.8937 456.0443 544.6192 452.47633 544.6192 449.18284 C 544.66734 448.23165 544.2597 447.3144 543.5214 446.7127 L 541.87465 445.06597 C 540.03316 443.46433 538.53876 441.5029 537.48333 439.30236 C 535.7561 435.3603 534.5564 431.2076 533.9154 426.95177 C 533.68077 425.27857 533.3137 423.62663 532.81755 422.01154 C 532.81755 421.7371 532.81755 421.18817 532.26864 421.18817 C 531.7197 421.18817 531.7197 421.7371 531.7197 422.286 C 531.3122 423.9078 531.0368 425.55994 530.89635 427.22623 C 530.073 432.4409 528.7007 437.38116 527.60286 442.3214 C 527.1346 443.8297 526.9485 445.4114 527.05395 446.9872 L 527.05395 454.39753 C 527.03905 456.0587 525.69607 457.40166 524.0349 457.41656 C 522.4746 457.3711 520.91334 457.4629 519.36913 457.691 C 518.3403 457.7152 517.3216 457.9004 516.3501 458.23994 C 514.4904 458.56763 512.6561 459.0262 510.86095 459.6122 C 508.4379 460.24563 505.9532 460.61374 503.4506 460.71005 L 495.7658 460.71005 C 494.8293 460.6601 493.9049 460.47525 493.0212 460.16114 C 492.6085 460.0924 492.226 459.90116 491.9234 459.6122 C 491.5778 459.35306 491.37446 458.94633 491.37446 458.5144 C 491.37446 458.08246 491.5778 457.6757 491.9234 457.41656 C 492.2481 456.9101 492.7303 456.5244 493.29566 456.31873 C 497.687 453.57416 502.35276 451.10404 506.4696 448.085 C 508.3853 446.9538 510.1394 445.569 511.6843 443.96814 C 512.6354 443.0837 513.3038 441.9379 513.6055 440.67465 C 514.166 438.43096 514.4426 436.1258 514.4289 433.8132 C 514.4289 430.7942 514.4289 428.0496 514.70336 425.03057 C 514.74846 424.01645 514.65614 423.0009 514.4289 422.01154 C 514.4289 418.16913 514.4289 414.32673 514.15444 410.4843 C 513.88 407.4653 514.15444 403.89734 513.88 400.60385 C 513.5556 397.40345 513.6479 394.1745 514.15444 390.99783 C 514.09135 389.2426 515.2182 387.665 516.899 387.15543 L 529.7985 383.03856 L 550.1084 376.4516 C 550.38284 376.4516 550.6573 376.17712 550.93175 376.17712 C 552.0296 375.6282 552.30404 375.0793 551.2062 374.2559 C 550.89346 373.9169 550.5214 373.63787 550.1084 373.43255 C 545.3322 369.8039 539.3088 368.224 533.3665 369.04123 C 530.3988 369.31425 527.5108 370.1527 524.8583 371.51135 C 520.2757 373.60365 516.09556 376.4833 512.5077 380.01953 C 509.4633 382.9335 506.62064 386.0512 503.9995 389.3511 C 500.722 393.6917 497.78564 398.27973 495.21687 403.07397 C 494.1013 405.53792 492.81744 407.9222 491.37446 410.20986 C 490.0431 412.62525 488.3802 414.8424 486.4342 416.79684 C 485.06194 418.4436 483.4152 419.8159 482.0429 421.18817 C 479.5271 423.267 476.6401 424.8502 473.5347 425.85394 C 470.87827 426.7176 468.0486 426.90624 465.301 426.40286 C 461.4553 425.5859 458.2668 422.9117 456.7928 419.26696 C 455.60575 415.7173 455.51015 411.89323 456.51835 408.28866 C 457.2372 405.6232 458.24975 403.04583 459.5374 400.60385 C 461.18413 397.5848 462.5564 394.29132 464.20316 391.2723 C 465.02654 389.62554 465.8499 387.9788 466.6733 386.0576 C 467.49665 384.1364 466.94774 383.5875 465.02654 383.313 C 463.91046 383.2648 462.80444 383.08045 461.73304 382.7641 C 456.84223 381.70634 452.1895 379.7522 448.01017 377.0005 C 446.6379 376.17712 446.08896 376.17712 444.99113 377.5494 C 441.4232 383.03856 437.85524 388.5277 434.8362 394.29132 C 432.3794 398.94356 430.3581 403.81305 428.79814 408.83757 C 427.75735 412.8821 427.1139 417.0186 426.87693 421.18817 C 426.9233 423.6665 427.10654 426.1404 427.42585 428.5985 C 428.0121 432.18307 429.02567 435.6845 430.4449 439.0279 C 433.1102 444.72405 436.7304 449.92223 441.14873 454.39753 C 443.06993 456.31873 444.99113 457.9655 446.91234 459.6122 C 449.71945 461.84775 452.7554 463.77973 455.96944 465.37583 C 460.05233 467.5411 464.3842 469.2001 468.86894 470.31607 C 471.6478 471.12775 474.4961 471.67904 477.3771 471.9628 C 478.7494 472.2373 479.84724 472.2373 481.21953 472.51173 C 482.5918 472.7862 484.7875 472.7862 486.4342 473.06065 L 489.45326 473.06065 C 490.48505 473.11613 491.48894 472.7146 492.19783 471.9628 L 497.687 467.29704 C 498.2359 466.7481 498.7848 466.47366 499.33373 465.92475 C 499.88265 465.37583 500.706 465.6503 500.9805 466.1992 C 501.2537 466.7141 501.2537 467.33104 500.9805 467.84595 C 500.7015 468.36666 500.3294 468.8318 499.88265 469.21824 L 499.0593 470.0416 L 495.7658 473.06065 C 493.5701 474.98185 491.37446 476.90305 489.45326 478.82425 L 482.8663 485.1368 C 480.39616 487.33244 478.2005 489.80256 475.7304 492.2727 L 472.16243 495.8406 C 471.4382 496.5952 470.7943 497.42303 470.24123 498.31074 C 469.8969 498.68584 469.70166 499.17393 469.6923 499.683 C 469.6923 500.23194 469.96677 500.5064 470.5157 500.78086 C 471.5439 501.8606 472.6443 502.86926 473.8092 503.7999 C 476.2793 505.99555 479.02387 507.91676 481.494 510.1124 C 487.2576 514.2293 493.0212 518.34614 499.0593 522.18855 L 515.5267 533.16685 C 517.1499 534.1493 518.5517 535.4576 519.6436 537.00926 C 521.29034 538.93046 522.6626 541.1261 524.5838 543.3218 C 527.4255 546.4914 530.7623 549.1794 534.4643 551.28105 C 537.92725 553.3737 541.9571 554.3332 545.9915 554.0256 C 547.9127 554.0256 548.46164 553.20225 547.3638 551.5555 C 545.6091 548.32684 543.1744 545.5176 540.2279 543.3218 L 539.40454 542.4984 C 539.1301 542.22395 539.1301 541.4006 539.1301 541.1261 C 539.1301 540.85166 539.95345 540.30275 540.50237 540.30275 C 541.1549 540.25857 541.8095 540.3521 542.4236 540.5772 C 545.6955 541.67876 549.12616 542.2351 552.5785 542.22395 L 553.6763 542.22395 C 554.77416 541.9495 555.0486 541.4006 554.4997 540.30275 Z" fill="#f9d6a4"/>
          </g>
        </g>
        <g id="Group_11">
          <g id="Graphic_12">
            <path d="M 562.459 445.88935 C 562.5022 445.3263 562.40804 444.7612 562.1845 444.2426 C 561.36114 442.8703 560.8122 441.7725 559.98885 440.4002 C 557.99164 436.85227 555.16696 433.8393 551.7551 431.61755 C 550.93175 431.06864 549.8339 430.5197 549.01055 429.9708 C 548.91176 429.84374 548.7598 429.7694 548.59886 429.7694 C 548.4379 429.7694 548.286 429.84374 548.1872 429.9708 C 547.9127 430.24526 547.63826 430.24526 547.63826 430.7942 C 547.3623 431.40486 547.3623 432.1047 547.63826 432.7154 C 547.5972 433.10226 547.6944 433.4912 547.9127 433.8132 C 547.9127 436.83225 547.9127 439.8513 548.1872 442.8703 C 548.46164 445.88935 548.1872 448.6339 548.46164 451.65295 C 548.7361 455.49536 548.46164 459.33777 548.7361 463.1802 C 549.01055 468.6693 548.7361 473.884 548.7361 479.37317 C 548.7667 480.99583 548.3892 482.6002 547.63826 484.03895 C 546.25235 486.75914 544.59734 489.3336 542.698 491.72376 L 536.3855 499.9575 L 535.5621 501.60423 C 535.2877 502.15315 535.5621 502.4276 536.11105 502.70206 L 536.9344 502.70206 C 538.72067 502.3187 540.46667 501.76736 542.1491 501.0553 C 545.5755 499.6183 548.5928 497.3553 550.93175 494.46834 C 552.6203 492.38647 554.0063 490.0765 555.0486 487.6069 C 555.8582 485.79733 556.2341 483.82375 556.14645 481.8433 C 555.918 477.3531 556.10176 472.8515 556.69536 468.39487 C 557.0195 465.81124 557.4775 463.2462 558.06765 460.71005 C 559.07455 456.1794 560.5461 451.76474 562.459 447.5361 C 562.1845 446.7127 562.459 446.43826 562.459 445.88935 Z" fill="#f9d6a4"/>
          </g>
        </g>
        <g id="Group_9">
          <g id="Graphic_10">
            <path d="M 723.5656 480.471 L 724.93785 479.0987 C 725.4866 478.50124 725.7818 477.714 725.7612 476.90305 L 725.7612 476.35414 C 725.138 473.3433 724.21865 470.40146 723.01665 467.5715 C 721.425 464.22577 719.2922 461.1656 716.7041 458.5144 C 714.3964 456.11885 711.8174 454.0004 709.0193 452.20187 C 706.7316 450.7589 704.3474 449.47505 701.8834 448.35946 C 700.2698 447.5476 698.7112 446.6308 697.2176 445.6149 C 696.1198 445.06597 695.5709 445.34043 695.2964 446.43826 C 695.0701 447.241 694.97735 448.0755 695.022 448.9084 C 695.0788 449.4916 695.26645 450.05445 695.5709 450.5551 C 695.9896 450.8895 696.4511 451.16644 696.9432 451.3785 C 699.1423 452.4963 701.2527 453.7809 703.2557 455.2209 C 707.0386 457.5466 710.383 460.5194 713.1362 464.00355 C 716.0029 467.67083 718.3148 471.73973 719.9976 476.0797 C 720.5465 477.45197 720.821 478.5498 721.3699 479.9221 C 721.5165 480.35583 721.8736 480.6852 722.3178 480.79626 C 722.762 480.9073 723.2321 480.78475 723.5656 480.471 Z" fill="#f9d6a4"/>
          </g>
        </g>
        <g id="Group_7">
          <g id="Graphic_8">
            <path d="M 737.5629 502.70206 C 737.5152 501.3151 737.3313 499.9362 737.014 498.5852 C 736.0582 493.48214 733.8936 488.6824 730.7015 484.58786 C 730.1306 483.7979 729.4874 483.06287 728.7803 482.3922 C 727.9569 481.56883 727.408 481.56883 726.5846 482.3922 C 726.3101 482.3922 726.3101 482.66666 726.0357 482.66666 L 723.5656 485.96015 C 721.66 488.9809 721.0655 492.64695 721.9188 496.1151 C 722.5303 498.3863 723.5536 500.526 724.93785 502.4276 C 726.525 504.6522 728.26755 506.7616 730.15254 508.7401 C 731.7993 510.66133 733.446 512.58253 734.8183 514.50374 C 735.0928 514.7782 735.3672 515.3271 735.91615 515.3271 C 736.4651 515.3271 736.4651 514.7782 736.7395 514.2293 C 737.2843 511.79674 737.56044 509.31173 737.5629 506.8189 Z" fill="#f9d6a4"/>
          </g>
        </g>
        <g id="Group_5">
          <g id="Graphic_6">
            <path d="M 656.5979 472.7862 C 654.9488 470.6251 653.65194 468.2167 652.7555 465.6503 L 652.7555 464.55246 C 653.03 464.00355 653.3044 463.45463 654.1278 463.45463 C 654.7866 463.45204 655.358 463.9092 655.5001 464.55246 C 655.7552 464.9776 655.94055 465.4409 656.049 465.92475 C 656.75024 467.6814 657.6725 469.34154 658.7936 470.865 C 659.1379 471.2401 659.33315 471.7282 659.3425 472.2373 C 659.4622 472.626 659.35716 473.049 659.06956 473.3366 C 658.78196 473.6242 658.3589 473.72925 657.9702 473.60956 C 657.4781 473.3975 657.0166 473.1206 656.5979 472.7862 Z M 650.55985 477.7264 C 650.3399 478.116 649.9056 478.33313 649.462 478.27534 C 648.73204 478.29494 648.03005 477.9941 647.5408 477.45197 C 645.0827 475.9094 643.0904 473.72735 641.7772 471.13944 C 641.5221 470.7143 641.33674 470.251 641.2283 469.76715 C 641.1105 469.5134 641.1027 469.2223 641.2066 468.96254 C 641.3105 468.7028 641.5169 468.4974 641.7772 468.39487 C 642.2921 468.1216 642.90904 468.1216 643.42395 468.39487 C 643.9304 468.7196 644.31614 469.20176 644.5218 469.76715 C 645.64404 471.9363 647.3566 473.74406 649.462 474.98185 C 649.95244 475.1975 650.3442 475.58925 650.55985 476.0797 C 650.8331 476.5946 650.8331 477.2115 650.55985 477.7264 Z M 638.4837 423.38383 L 638.4837 422.8349 C 638.4837 422.286 638.7582 422.01154 639.3071 421.7371 C 639.856 421.4626 640.4049 421.7371 640.9538 422.286 L 641.7772 423.93274 C 642.1005 425.1296 642.6605 426.24947 643.42395 427.22623 C 643.97705 428.11394 644.6209 428.94176 645.34516 429.69635 C 645.8625 430.12766 646.24384 430.69964 646.443 431.3431 C 646.71744 431.61755 646.443 432.16647 646.443 432.4409 C 646.1838 432.7865 645.7771 432.98984 645.34516 432.98984 C 644.9132 432.98984 644.5065 432.7865 644.2473 432.4409 C 641.26376 430.2464 639.2081 427.01603 638.4837 423.38383 Z M 638.4837 447.81055 C 638.2556 449.44685 638.1638 451.0993 638.20926 452.7508 C 638.20926 453.57416 638.4837 454.672 638.4837 455.49536 C 638.4755 455.9253 638.2738 456.32863 637.9348 456.5932 C 637.6128 456.8115 637.22385 456.9087 636.837 456.86765 C 636.3939 456.8407 636.0405 456.4874 636.0136 456.0443 C 635.73335 455.3402 635.5487 454.60174 635.4647 453.8486 L 635.4647 451.65295 C 635.4193 450.36604 635.51134 449.07795 635.73914 447.81055 L 635.73914 447.26163 C 636.0136 446.1638 636.5625 445.88935 637.66034 445.88935 C 638.1469 446.4164 638.4376 447.0947 638.4837 447.81055 Z M 641.2283 398.9571 C 641.7704 398.63316 642.4673 398.7493 642.87504 399.23156 C 643.21405 399.5443 643.4931 399.91636 643.6984 400.3294 C 644.7413 402.0662 646.03624 403.63857 647.5408 404.99517 C 647.9723 405.39607 648.34224 405.8585 648.63865 406.36746 C 648.85694 406.6895 648.9542 407.0784 648.9131 407.4653 C 648.8862 407.9084 648.5328 408.26173 648.0897 408.28866 C 647.5476 408.6126 646.8507 408.49644 646.443 408.0142 C 645.7356 407.44446 645.0915 406.80036 644.5218 406.093 C 643.3588 404.6449 642.34715 403.0815 641.50275 401.4272 C 641.2283 401.15276 641.2283 400.8783 641.2283 400.3294 C 640.6794 399.506 640.6794 399.23156 641.2283 398.9571 Z M 657.9702 452.20187 C 657.9702 452.7508 657.69575 453.02524 657.1468 453.2997 C 656.5979 453.57416 656.049 453.57416 655.77454 453.02524 L 654.6767 451.9274 C 653.03 449.4573 651.6577 447.26163 650.2854 444.7915 C 650.0109 444.2426 649.7365 443.96814 649.7365 443.41923 C 649.7365 442.8703 650.0109 442.3214 650.55985 442.3214 C 651.0291 442.1115 651.57974 442.22163 651.9321 442.59586 C 652.4795 443.167 652.9417 443.81406 653.3044 444.51706 C 654.33225 446.4468 655.5261 448.28347 656.8724 450.0062 C 657.5976 450.49535 658.014 451.32823 657.9702 452.20187 Z M 651.1088 417.0713 C 651.686 417.06075 652.2187 417.38037 652.48105 417.89467 C 653.9785 419.939 655.63 421.8658 657.4213 423.6583 C 657.7102 423.9609 657.9015 424.3434 657.9702 424.7561 C 657.9702 425.30503 657.9702 425.5795 657.4213 425.85394 C 657.00595 426.13145 656.46434 426.13145 656.049 425.85394 C 655.4836 425.6483 655.00145 425.26257 654.6767 424.7561 C 653.5789 423.10937 651.9321 422.01154 650.8343 420.3648 C 650.55985 419.8159 650.0109 419.26696 650.0109 418.71805 C 649.7334 418.3027 649.7334 417.7611 650.0109 417.34576 C 650.0109 417.0713 650.55985 416.79684 651.1088 417.0713 Z M 613.7825 440.67465 C 613.2336 442.04694 612.9592 443.14477 612.41025 444.51706 C 611.8613 445.88935 611.8613 446.9872 611.3124 448.085 C 611.2437 448.4977 611.05244 448.88023 610.7635 449.18284 C 610.62334 449.4077 610.3965 449.5647 610.1367 449.61667 C 609.87685 449.66863 609.6071 449.61096 609.3912 449.4573 C 608.8769 449.19496 608.5573 448.66225 608.56784 448.085 L 608.56784 447.81055 C 608.59284 446.87107 608.7785 445.9428 609.11676 445.06597 C 609.4497 443.6553 609.909 442.27744 610.48905 440.9491 C 610.7635 440.4002 611.03796 440.12574 611.3124 439.5768 C 611.73735 438.95545 612.54456 438.7248 613.2336 439.0279 C 613.8035 439.36165 614.0382 440.06574 613.7825 440.67465 Z M 608.0189 464.8269 C 607.7909 466.27895 607.699 467.7491 607.7445 469.21824 L 607.7445 470.0416 C 607.7445 470.7995 607.1301 471.4139 606.3722 471.4139 C 605.6143 471.4139 604.9999 470.7995 604.9999 470.0416 L 604.9999 468.1204 C 605.0465 466.09765 605.2299 464.08035 605.5488 462.08234 C 605.5488 461.8079 605.8233 461.5334 605.8233 461.25897 C 606.3722 460.4356 606.64664 460.16114 607.47 460.4356 C 608.1504 460.6934 608.5916 461.3552 608.56784 462.08234 C 608.2296 462.95917 608.0439 463.88744 608.0189 464.8269 Z M 603.9021 438.75345 C 603.0472 440.9062 602.3142 443.10533 601.7064 445.34043 C 601.7064 445.6149 601.43195 445.88935 601.43195 446.1638 C 601.10206 446.74814 600.4506 447.07387 599.7852 446.9872 C 599.0318 446.66323 598.58396 445.87953 598.6874 445.06597 C 598.67595 444.68173 598.7709 444.3018 598.9618 443.96814 C 599.4444 441.6971 600.1809 439.48754 601.1575 437.38116 C 601.43195 437.1067 601.7064 436.5578 601.98086 436.28333 C 602.2553 436.00887 603.0787 435.7344 603.6276 436.00887 C 604.1419 436.2712 604.4615 436.8039 604.451 437.38116 C 604.1765 437.9301 604.1765 438.479 603.9021 438.75345 Z M 598.13846 463.7291 C 597.82 465.35795 597.6364 467.0103 597.58954 468.6693 C 597.6328 469.23237 597.5386 469.7975 597.3151 470.31607 C 597.0406 470.865 596.4917 471.4139 595.9428 471.13944 C 595.36555 471.15 594.83284 470.8304 594.5705 470.31607 C 594.3454 469.702 594.2519 469.0474 594.29605 468.39487 C 594.4351 466.1844 594.7101 463.9846 595.1194 461.8079 C 595.1194 461.5334 595.3939 461.25897 595.3939 460.9845 C 595.6562 460.4702 596.1889 460.1506 596.7662 460.16114 C 597.3151 460.16114 597.864 460.71005 598.13846 461.5334 C 598.414 462.2394 598.414 463.02314 598.13846 463.7291 Z M 661.8126 435.45996 C 662.165 435.08573 662.7157 434.9756 663.1849 435.1855 C 663.5979 435.3908 663.97 435.66986 664.2827 436.00887 C 666.201 438.3846 668.4145 440.5059 670.8697 442.3214 C 671.4703 442.6713 671.87554 443.27914 671.96754 443.96814 C 671.9593 444.3981 671.75765 444.8014 671.4186 445.06597 C 671.0033 445.3435 670.4617 445.3435 670.0463 445.06597 L 668.3996 444.2426 C 666.17105 442.561 664.0618 440.7269 662.0871 438.75345 C 661.6285 438.2723 661.257 437.7151 660.9892 437.1067 C 661.14655 436.50664 661.42695 435.94585 661.8126 435.45996 Z M 638.20926 513.9548 C 640.6248 513.34883 643.00676 512.6159 645.34516 511.75916 L 660.1659 506.54447 C 664.3529 505.2074 668.3978 503.4607 672.242 501.3298 C 673.6143 500.5064 674.9866 499.683 676.0844 498.85966 C 677.0755 498.07975 677.5071 496.78473 677.1822 495.56617 C 676.6333 494.1939 676.0844 493.09605 675.5355 491.9982 L 671.4186 486.2346 C 669.4788 483.302 668.4302 479.87014 668.3996 476.35414 C 668.3617 473.2266 669.6596 470.2314 671.96754 468.1204 L 676.9078 464.00355 C 679.3779 462.3568 682.1225 460.71005 684.5926 458.78885 C 687.1807 457.0242 689.4149 454.78994 691.1796 452.20187 C 692.3496 450.29675 693.0111 448.12325 693.1008 445.88935 C 693.04244 443.3535 692.2824 440.88345 690.9051 438.75345 C 688.7113 435.1971 686.0325 431.964 682.94584 429.14743 C 682.3485 428.36786 681.60215 427.7148 680.7502 427.22623 C 679.9268 426.6773 678.5545 425.03057 677.1822 423.93274 C 675.80995 422.8349 675.80995 422.56045 674.9866 422.01154 C 673.5778 420.9679 672.2891 419.7713 671.1442 418.4436 L 667.5762 414.87564 C 665.5213 412.75787 663.932 410.2337 662.91044 407.4653 C 660.9892 402.52505 659.3425 397.85927 657.1468 392.91904 C 655.1227 388.34554 652.4413 384.0923 649.1876 380.294 C 647.811 378.55193 646.1388 377.0655 644.2473 375.90267 C 643.8722 375.55833 643.3841 375.3631 642.87504 375.35375 C 642.3261 375.35375 642.0517 375.90267 641.7772 376.17712 C 641.5671 376.3967 641.4664 376.6988 641.50275 377.0005 C 640.6794 378.3728 639.856 380.01953 639.0326 381.3918 C 637.66034 383.5875 636.5625 385.78314 635.1902 387.9788 C 634.8818 388.5765 634.6952 389.22957 634.6413 389.9 L 633.81794 394.01687 C 633.3142 396.53387 632.3861 398.9469 631.0734 401.15276 C 630.2709 402.3459 629.6252 403.6373 629.15216 404.99517 C 628.5041 407.20287 627.2713 409.1943 625.5842 410.7588 C 624.225 411.8312 622.7525 412.75155 621.1929 413.50335 C 619.89565 414.00496 618.9576 415.1515 618.7228 416.5224 C 617.3505 421.18817 615.70374 425.85394 614.057 430.24526 C 613.7486 430.843 613.562 431.49603 613.5081 432.16647 C 613.3024 432.73186 612.9167 433.214 612.41025 433.53876 C 611.8917 433.7623 611.32655 433.85647 610.7635 433.8132 C 609.11676 433.2643 607.47 432.7154 605.5488 432.16647 L 605.27435 431.892 C 604.4327 431.37497 603.9963 430.3931 604.1765 429.4219 C 604.1765 428.873 604.451 428.5985 604.451 428.0496 L 615.70374 394.29132 L 619.54615 382.7641 C 619.768 382.3427 619.8633 381.86614 619.8206 381.3918 C 619.8206 380.8429 619.54615 380.56845 618.9972 380.8429 C 618.4483 381.11736 617.62494 381.66628 617.3505 382.48965 C 616.7351 383.0699 616.18305 383.71392 615.70374 384.41085 C 613.5081 386.6065 611.3124 388.80217 609.11676 390.72338 C 608.3276 391.35845 607.7527 392.22076 607.47 393.1935 C 606.64664 396.21253 605.5488 399.506 604.451 402.52505 C 603.35315 406.36746 602.2553 410.20986 601.1575 413.7778 C 600.3341 416.5224 599.51074 419.5414 598.4129 422.56045 C 597.3151 426.40286 596.21725 429.9708 595.1194 433.8132 C 593.4727 439.30236 591.8259 445.06597 590.1792 450.5551 C 588.8069 454.94645 587.4346 459.33777 586.0623 464.00355 C 585.78786 464.8269 585.5134 465.37583 585.23895 466.1992 C 584.898 467.2296 583.8238 467.82637 582.7688 467.5715 L 581.94546 467.29704 C 578.355 466.7859 575.0551 465.03886 572.6139 462.3568 C 571.12 460.8875 569.8279 459.2262 568.7715 457.41656 C 567.6946 455.76855 566.7757 454.0226 566.0269 452.20187 C 566.0269 451.9274 565.75246 451.65295 565.478 451.3785 C 565.2804 451.12436 564.97655 450.9757 564.6546 450.9757 C 564.3327 450.9757 564.02884 451.12436 563.83126 451.3785 C 563.5568 451.65295 563.5568 451.9274 563.28234 452.47633 C 562.1708 455.3151 561.3434 458.257 560.8122 461.25897 C 560.2633 464.00355 559.7144 467.0226 559.43994 469.76715 C 559.1207 472.13334 558.9374 474.5159 558.891 476.90305 C 558.891 478.27534 559.43994 478.82425 560.8122 479.0987 L 584.4156 479.0987 C 586.8857 479.0987 588.8069 478.82425 591.00256 478.82425 C 595.3939 478.82425 600.05966 479.0987 604.72544 478.82425 C 607.7445 478.5498 611.3124 478.82425 614.057 478.5498 C 616.42905 478.33146 618.8111 478.23985 621.1929 478.27534 C 623.1141 478.0009 623.38855 477.45197 622.5652 475.8052 C 619.56466 470.732 617.9553 464.95716 617.8994 459.0633 C 617.8994 458.5144 618.17386 457.691 618.17386 457.1421 C 618.1779 455.1919 618.455 453.25184 618.9972 451.3785 C 620.02206 447.16777 621.5905 443.1083 623.663 439.30236 C 623.942 438.78166 624.3141 438.31653 624.76084 437.9301 C 625.1686 437.44783 625.8655 437.3317 626.4076 437.6556 C 626.97744 437.98936 627.2121 438.69346 626.9565 439.30236 C 626.8878 439.7151 626.6965 440.0976 626.4076 440.4002 C 625.2885 442.5424 624.2808 444.741 623.38855 446.9872 C 622.23775 450.2678 621.5002 453.6791 621.1929 457.1421 C 620.9728 459.71665 621.158 462.3098 621.7418 464.8269 C 622.4132 468.5408 623.8123 472.0852 625.8587 475.2563 C 627.36105 477.5447 629.1097 479.6615 631.0734 481.56883 C 633.6722 483.9752 636.52504 486.0918 639.58155 487.88135 C 644.6888 490.66556 650.1304 492.78686 655.77454 494.1939 C 656.32346 494.46834 656.8724 494.46834 657.4213 494.7428 C 657.7603 495.05555 658.03934 495.4276 658.2447 495.8406 C 658.2874 496.31495 658.1921 496.7915 657.9702 497.2129 C 657.69575 497.48737 657.1468 498.0363 656.8724 498.0363 C 654.9512 498.85966 653.3044 499.683 651.3832 500.5064 L 639.3071 505.99555 L 629.15216 510.3869 C 625.30975 512.3081 621.46735 513.9548 617.3505 515.876 C 612.6847 518.0717 608.2934 520.26735 603.6276 522.463 C 602.7225 523.0246 601.6735 523.31066 600.6086 523.2864 C 594.9686 523.1373 589.3873 524.4617 584.4156 527.1288 C 582.4796 528.25066 580.6432 529.53615 578.9264 530.9712 C 576.82796 532.83754 575.2249 535.195 574.26065 537.8326 C 573.64146 539.12455 573.2691 540.5208 573.1628 541.9495 C 573.1628 543.59624 573.7117 543.3218 574.80956 543.3218 L 575.3585 543.3218 C 578.41504 542.20765 581.284 540.63434 583.86666 538.656 L 585.5134 537.5582 C 586.1241 537.28224 586.8239 537.28224 587.4346 537.5582 C 587.7102 538.2641 587.7102 539.0479 587.4346 539.75383 L 586.3368 541.1261 C 584.3697 543.41386 582.7933 546.0103 581.671 548.81093 C 581.2719 549.6837 580.99485 550.6072 580.8476 551.5555 C 580.80656 551.9424 580.9038 552.3313 581.1221 552.65334 C 581.38664 552.99236 581.78996 553.194 582.2199 553.20225 L 582.7688 553.20225 C 583.86666 552.9278 584.9645 552.65334 585.78786 552.3789 C 590.5337 550.6934 594.8459 547.97486 598.4129 544.4196 C 602.20984 540.7647 605.3644 536.4967 607.7445 531.79456 C 609.1163 529.3323 610.9857 527.1825 613.2336 525.48204 C 616.3527 523.0525 619.76434 521.024 623.38855 519.444 C 628.04145 516.9162 633.03234 515.06774 638.20926 513.9548 Z" fill="#f9d6a4"/>
          </g>
        </g>
        <g id="Group_3">
          <g id="Graphic_4">
            <path d="M 695.84535 496.1151 C 694.92935 494.67877 693.9209 493.3036 692.8263 491.9982 C 690.8425 489.55024 689.0094 486.9839 687.3372 484.3134 C 685.7328 481.8994 684.6141 479.19596 684.0437 476.35414 C 683.816 475.17923 683.7239 473.9821 683.7692 472.7862 L 683.7692 468.6693 C 683.9724 467.1696 684.3406 465.6969 684.86705 464.278 C 685.1415 464.00355 684.86705 463.45463 684.5926 463.1802 C 684.28 462.9006 683.8073 462.9006 683.49476 463.1802 C 682.94584 463.45463 682.6714 463.7291 682.3969 463.7291 C 679.5719 465.40096 676.9075 467.33037 674.43766 469.4927 C 673.3229 470.33835 672.46724 471.47925 671.96754 472.7862 C 671.1122 474.8733 670.9206 477.17325 671.4186 479.37317 C 671.9286 481.63114 672.85974 483.7727 674.1632 485.6857 C 675.261 487.33244 676.6333 488.7047 677.73115 490.3515 C 679.0725 491.93494 680.0137 493.8175 680.4757 495.8406 C 680.797 496.9344 680.6991 498.1086 680.2013 499.1341 C 679.7826 500.19004 679.00516 501.0646 678.0056 501.60423 C 677.73115 501.8787 677.4567 501.8787 677.1822 502.15315 C 676.9078 502.4276 676.6333 502.70206 676.6333 502.9765 C 676.59225 503.3634 676.6895 503.7523 676.9078 504.07435 C 676.9078 504.3488 677.1822 504.3488 677.1822 504.62327 C 677.6683 505.0381 677.9654 505.6323 678.0056 506.27 C 678.0241 506.92215 677.71505 507.5403 677.1822 507.91676 C 676.6125 508.6241 675.9684 509.2682 675.261 509.83796 C 673.3398 511.75916 671.6931 513.9548 669.7719 515.876 C 667.3018 518.34614 664.83164 521.0907 662.3615 523.56084 L 661.8126 524.10975 C 658.2394 527.9571 654.3865 531.5348 650.2854 534.8136 C 648.9542 536.0042 647.35264 536.8521 645.6196 537.2837 L 640.1305 538.93046 C 636.1193 540.0311 632.25065 541.597 628.60325 543.59624 C 623.8802 546.1334 620.40705 550.4997 618.9972 555.6724 C 618.7228 556.49575 618.7228 557.04466 618.4483 557.868 C 618.4483 559.2403 618.7228 559.5148 620.09506 559.5148 L 620.644 559.5148 C 622.2009 559.25674 623.6926 558.6974 625.0353 557.868 C 627.0457 556.6456 628.8905 555.1697 630.52445 553.4767 C 630.9109 553.02994 631.376 552.65784 631.8967 552.3789 C 632.41165 552.10564 633.0286 552.10564 633.5435 552.3789 C 634.0257 552.7866 634.1419 553.4835 633.81794 554.0256 C 633.5502 554.634 633.1787 555.1912 632.7201 555.6724 C 630.8881 557.43817 629.4805 559.5965 628.60325 561.9849 C 627.85856 563.63456 627.39474 565.39706 627.23096 567.1996 C 627.23096 569.39525 628.0543 569.9442 629.9755 569.6697 C 634.0786 568.838 637.7652 566.6066 640.4049 563.3572 C 641.68356 561.7768 642.87466 560.1276 643.9729 558.41695 C 646.5087 554.5354 648.62475 550.39525 650.2854 546.06636 C 651.1191 544.1747 652.22904 542.4173 653.5789 540.85166 C 654.6388 539.70165 655.83725 538.68756 657.1468 537.8326 C 659.61695 535.3625 662.3615 533.16685 665.1061 530.69673 L 669.7719 526.5799 C 671.96754 524.65867 673.88874 522.463 676.0844 520.5418 C 677.3359 519.51334 678.5272 518.4137 679.65235 517.2483 C 681.8913 515.2834 684 513.17476 685.9649 510.9358 C 687.8861 508.7401 690.63066 506.54447 692.55186 504.07435 C 693.3752 502.9765 694.4731 501.8787 695.2964 500.78086 C 696.1973 499.6894 696.3075 498.1469 695.5709 496.93845 C 696.1198 496.93845 695.84535 496.38954 695.84535 496.1151 Z" fill="#f9d6a4"/>
          </g>
        </g>
      </g>
    </g>
  </g>
</svg>
